<?xml version="1.0" encoding="UTF-8"?>
<!-- Uploaded to: SVG Find, www.svgfind.com, Generator: SVG Find Mixer Tools -->
<svg fill="#000000" width="800px" height="800px" version="1.1" viewBox="144 144 512 512" xmlns="http://www.w3.org/2000/svg">
 <path d="m576.1 326.07c-13.648-5.332-27.883-9.9258-37.418-12.84-8.0625-2.4609-15.156-7.6523-19.969-14.617l-37.637-54.461c-4.4922-6.4961-13.207-9.3438-20.711-6.7109-16.414 5.7305-28.953 12.648-36.578 17.445-2.8477 1.793-6.668 1.6406-9.3711-0.37109-11.164-8.3086-38.203-28.457-48.16-36.168-0.92188-0.71484-1.3438-1.8711-1.1016-3.0156l1.1133-5.2227c0.74219-3.4922-0.019531-7.1562-2.0898-10.062-2.0703-2.9062-5.293-4.8242-8.8359-5.2617l-68.227-8.3711c-7.2227-0.88672-14.625-0.66406-21.781 0.66016-4.4766 0.82813-10.598 2.0156-18.805 3.7148-10.098 2.0898-16.801 8.4727-18.867 17.973-2.5156 11.566 2.7812 26.359 11.809 32.977 8.6445 6.3438 38.938 28.02 51.555 37.047 5.5859 3.9922 7.9805 11.086 5.9727 17.641l-0.35547 1.1484c-3.0117 9.8242-3.4688 20.324-1.3242 30.367l30.258 141.82c1.6328 7.6602 6.8711 14.148 14.016 17.363l38.898 17.496c8.4062 3.7812 12.535 13.535 9.4062 22.203-2.5312 7.0039-9.2344 11.707-16.68 11.707h-87.781c-8.9922 0-17.828 1.5508-26.258 4.6094-19.988 7.2461-37.039 17.379-50.672 30.117-4.8477 4.5273-6.4062 11.43-3.9766 17.59 2.4219 6.1328 8.25 10.098 14.852 10.098h255.49v4.7266h-55.176l13.957 8.4531 3.6328-3.3828h42.664v-9.8008l74.582 0.003906c15.965 0 28.953-12.988 28.953-28.953 0-20.281-16.504-36.785-36.785-36.785h-48.543c-3.918 0-6.9219-0.76953-8.6875-2.2188-1.2344-1.0156-1.832-2.375-1.832-4.1562 0-6.6719 8.5664-16.754 21.48-16.754 14.898 0 38.484 5.4688 55.645 10.055 1.8086 0.48047 3.6602 0.72656 5.5078 0.72656 11.141 0 20.43-8.7188 21.145-19.852l9.1055-141.79c0.99219-15.398-8.0195-29.52-22.422-35.148zm3.1914 176.28c-0.4375 6.7695-7.2422 11.754-13.906 9.9688-17.75-4.7422-42.266-10.398-58.266-10.398-18.102 0-31.629 14.203-31.629 26.902 0 4.7969 1.9648 9.0586 5.5352 11.996 3.6523 3.0039 8.7461 4.5273 15.133 4.5273h48.543c14.688 0 26.637 11.949 26.637 26.637 0 10.371-8.4375 18.805-18.805 18.805l-335.15 0.003906c-3.6758 0-5.0742-2.8125-5.4141-3.6758-0.34375-0.87109-1.2539-3.9102 1.4648-6.4492 12.629-11.797 28.508-21.215 47.207-27.992 7.3164-2.6562 14.984-4 22.797-4h87.777c11.707 0 22.246-7.3984 26.223-18.406 4.9258-13.629-1.5703-28.961-14.785-34.906l-38.898-17.496c-4.2031-1.8906-7.293-5.7148-8.2539-10.223l-30.258-141.82c-1.7852-8.3594-1.4023-17.098 1.1016-25.266l0.35547-1.1484c3.2891-10.738-0.63281-22.344-9.7695-28.879-12.609-9.0156-42.859-30.664-51.461-36.973-5.2305-3.832-9.7578-14.07-7.8906-22.637 1.1953-5.4961 4.9023-8.9258 11.008-10.191 8.1133-1.6797 14.164-2.8555 18.59-3.6719 6.1445-1.1367 12.504-1.3203 18.703-0.56641l68.223 8.3711c0.99219 0.12109 1.5586 0.72656 1.8086 1.0742 0.25 0.35156 0.63672 1.082 0.42969 2.0625l-1.1133 5.2266c-1.0469 4.9141 0.84375 10.074 4.8125 13.148 10.027 7.7656 37.133 27.965 48.32 36.289 5.9961 4.4648 14.488 4.8047 20.824 0.82422 7.1875-4.5195 19.008-11.039 34.527-16.457 3.2773-1.1523 7.0703 0.085937 9.0195 2.9023l37.637 54.461c6.1055 8.8359 15.109 15.426 25.355 18.555 9.3672 2.8633 23.336 7.3672 36.688 12.586 10.27 4.0117 16.695 14.074 15.988 25.043z"/>
</svg>