<?xml version="1.0" encoding="UTF-8"?>
<!-- Uploaded to: SVG Find, www.svgfind.com, Generator: SVG Find Mixer Tools -->
<svg fill="#000000" width="800px" height="800px" version="1.1" viewBox="144 144 512 512" xmlns="http://www.w3.org/2000/svg">
 <path d="m612.44 236.18c-1.7773-2.8164-4.6953-4.6445-8.0117-5.0156-14.145-1.582-21.145-2.2305-26.176-2.4023-5.3438 0-9.7539 4.3516-9.8281 9.707-0.14453 10.328 0.33594 18.07 3.1641 22.285 1.0859 1.6172 1.5273 3.9023 1.0664 5.5508-0.29297 1.0664-0.94141 1.8008-2.0352 2.3164-0.91016 0.42969-1.7383 0.64453-2.4648 0.64453-2.6758 0-3.7031-3.5781-4.0195-5.1133-0.74219-3.5977 0.13672-6.332 1.0586-9.2305 0.65234-2.0352 1.3281-4.1445 1.3125-6.4258-0.015625-2.8477-0.28125-15.23-0.44141-22.562-0.12109-5.6133-4.2539-10.242-9.8242-11.004-2.9453-0.39844-5.9414 0.38281-8.2852 2.1172l-71.617 52.84c-6.8828 5.0781-8.9766 14.559-4.8711 22.055 14.27 26.02 3.6797 40.32-8.5586 50.883-3.9492 3.4102-10.059 5.1406-18.152 5.1406-9.4414 0-19.824-2.3242-27.41-4.0195-3.1562-0.70703-5.8945-1.3125-8.0195-1.6602-1.7188-0.27734-3.5625-0.41797-5.4766-0.41797-9.7383 0-20.281 3.6211-27.98 6.2656-1.5352 0.52734-2.9688 1.0195-4.2695 1.4375-0.59375 0.19141-1.7617 0.42188-3.9336 0.42188-6.8555 0-17.898-2.3086-27.645-4.3398-5.6016-1.168-10.895-2.2734-15.441-2.9844-7.9375-1.2383-14.426-1.2812-20.699-1.3242-6.1875-0.046875-12.031-0.085938-19.242-1.2109-11.609-1.8086-32.352-5.3789-40.73-6.832-3.1016-0.54688-6.0938 0.57812-8.1016 2.8359-1.6719 1.8828-2.457 4.3984-2.1562 6.9062l0.51172 4.2461c0.16797 1.3906-0.21094 2.7852-1.0586 3.9258-6.5078 8.7227-25.91 37.035-35.582 75.07l-5.4922-1.6641 12.297-40.551 3.2852-10.828-11.812 10.605 2.125 4.3359-12.043 39.738 10.48 3.1797c-1.1562 5.0938-2.1562 10.32-2.8945 15.711-6.6445 48.609 2.1875 93.617 5.0547 106.25 0.35547 1.5664 0.42188 3.1875 0.19922 4.8203l-1.0234 7.4844c-1.0977 8.0508 4.5547 15.496 12.605 16.594l22.453 3.0703c0.62891 0.085938 1.2578 0.12891 1.8867 0.12891 4.75 0 9.1211-2.3828 11.695-6.375l1.2422-1.9297c3.5977-5.5938 2-13.105-3.5625-16.75-4.0391-2.6484-9.625-6.6836-13.312-10.883-7.2188-8.2344-11.18-25.637-11.781-51.723-0.015625-0.80078 0.38281-1.3359 0.625-1.582 0.23438-0.24219 0.74609-0.64844 1.7148-0.64844 0.011719 0 0.023437 0 0.035156 0.003906l4.1016 0.39453 0.89844 0.039063c4.6758 0 8.6641-3.4961 9.2734-8.1328l5.1641-39.117c0.46484-3.5117-0.26953-7.125-2.0664-10.172l-5.8828-9.9805c-1.1875-2.0195-1.5156-4.3711-0.92188-6.6211 2.5312-9.5859 7.5703-27.461 12.891-39.465 4.625-10.43 12.668-16.648 17.055-19.43 1.5078-0.96094 3.3945-1.3516 5.2539-1.1445l134.55 16.141c2.6094 0.3125 5.1484 1.2383 7.3438 2.6836l10.484 6.8984c4.2578 2.7969 10.461 1.1406 12.777-3.3828l2.3008-4.5117c0.34375-0.67578 1.0703-1.0391 2.082-1.0781 5.6914 0.81641 14.395 1.9062 23.531 2.4648 1.832 0.11328 3.7344 0.16797 5.6875 0.16797 15.758 0 32.477-3.6172 43.633-9.4414 13.777-7.1875 47.094-40.836 74.273-75.012 18.609-23.402 26.645-42.027 29.777-51.051 1.0938-3.1328 0.69922-6.5391-1.0703-9.3477zm-8.2539 6.1133c-2.9258 8.4258-10.48 25.887-28.176 48.141-28.281 35.555-60.176 66.695-71.113 72.402-9.832 5.1328-24.801 8.3203-39.066 8.3203-1.7461 0-3.4414-0.046875-5.082-0.14844-8.8047-0.53906-17.223-1.5938-22.734-2.3828-5.1094-0.73438-9.9805 1.8633-12.273 6.3633l-1.7969 3.5156-9.5469-6.2812c-3.4688-2.2812-7.4805-3.75-11.602-4.2383l-134.55-16.141c-4.1406-0.50781-8.293 0.4375-11.719 2.6094-5.3242 3.3789-15.109 10.957-20.789 23.766-5.6016 12.633-10.809 31.078-13.414 40.949-1.2734 4.8203-0.57422 9.8477 1.9609 14.156l5.8828 9.9805c0.68359 1.1562 0.96094 2.5312 0.78516 3.8672l-5.0977 38.621-3.6016-0.35156c-3.7031-0.34766-7.2031 0.96094-9.7617 3.5742-2.2891 2.3438-3.5078 5.4375-3.4297 8.7109 0.66016 28.871 5.3164 47.844 14.227 58.008 4.418 5.0352 10.773 9.6484 15.328 12.633 1.043 0.68359 1.3438 2.0938 0.67188 3.1406l-1.2422 1.9258c-0.85156 1.3164-2.3945 2.0273-3.9453 1.8164l-22.453-3.0703c-2.6523-0.36328-4.5195-2.8203-4.1602-5.4766l1.0234-7.4844c0.38281-2.8086 0.26562-5.6133-0.35547-8.3398-2.7734-12.227-11.316-55.77-4.9023-102.73 6.2695-45.887 30.496-81.27 37.773-91.023 2.3711-3.1797 3.418-7.0859 2.9492-11.008l-0.33984-2.8398c9.1289 1.5781 28.414 4.8906 39.492 6.6211 7.9375 1.2383 14.426 1.2812 20.699 1.3242 6.1875 0.046875 12.031 0.085938 19.242 1.2109 4.2969 0.66797 9.4727 1.7461 14.949 2.8906 14.539 3.0391 29.512 5.9492 36.625 3.6484 1.3555-0.4375 2.8477-0.94922 4.4453-1.5 7.0391-2.418 16.68-5.7266 24.77-5.7266 1.3867 0 2.7031 0.097656 3.9023 0.29297 1.9727 0.32031 4.5117 0.89062 7.4375 1.5469 8.0352 1.7969 19.035 4.2578 29.566 4.2578s18.809-2.5352 24.605-7.5391c13.223-11.41 28.719-30.363 10.766-63.105-1.7422-3.1797-0.85156-7.207 2.0742-9.3633l71.621-52.844c0.25391-0.1875 0.59375-0.26562 1.082-0.27344 0.73438 0.10156 1.2773 0.70312 1.293 1.4375 0.16016 7.2773 0.42188 19.574 0.4375 22.402 0.003906 0.70703-0.42578 2.0547-0.84375 3.3594-1.0938 3.418-2.5898 8.1016-1.3281 14.23 1.6562 8.0156 6.9023 12.992 13.691 12.992 2.1953 0 4.4375-0.53125 6.6758-1.5898 3.6797-1.7344 6.2852-4.793 7.3438-8.6172 1.2266-4.4258 0.30859-9.668-2.3828-13.684-0.76953-1.1484-1.6523-4.9688-1.5312-16.617 4.3477 0.15234 11.379 0.80859 25.078 2.3398 0.41016 0.046875 0.64062 0.28125 0.75781 0.47266 0.10156 0.19141 0.21484 0.48438 0.085938 0.85156z"/>
</svg>