<?xml version="1.0" encoding="UTF-8"?>
<!-- Uploaded to: SVG Find, www.svgfind.com, Generator: SVG Find Mixer Tools -->
<svg fill="#000000" width="800px" height="800px" version="1.1" viewBox="144 144 512 512" xmlns="http://www.w3.org/2000/svg">
 <path d="m593.08 466.09c-5.5586-10.234-16.242-16.59-27.883-16.59-5.8594 0-11.605 1.6367-16.617 4.7383-29.109 18.004-76.852 47.523-87.336 53.934l-0.5 0.30469c-8.4805 5.1836-18.09 11.055-24.91 11.055-2.6406 0-5.7031-0.70703-8.4023-5.9688-3.0625-5.9766-1.1602-12.66 5.6523-19.867 2.5625-2.7109 3.8828-6.2461 3.7109-9.9531-0.16797-3.668-1.7812-7.0234-4.543-9.4492-13.102-11.516-45.676-40.715-65.102-63.055-24.945-28.688-56.387-95.898-61.223-109.13-0.54297-1.4805-1.2305-3.1953-1.9883-5.082-7.1953-17.898-12.914-36.086 2.6523-44.578 3.8594-2.1055 7.668-3.1758 11.316-3.1758 12.848 0 23.211 13.207 29.641 24.281 1.1016 1.8945 2.2852 4.1562 3.5898 6.6328 8.3125 15.812 20.875 39.711 44.586 39.711 4.9844 0 9.5117-2.0469 13.09-5.918 14.441-15.625 11.445-59.27 11.051-64.273-1.0664-11.23-6.2305-23.168-10.371-31.203-3.5586-6.9102-10.277-11.801-17.961-13.082-25.746-4.2969-70.684-12.508-103.85-18.645-20.062-3.707-40.141 4.1914-52.375 20.406-10.156 13.457-13.316 30.508-8.6758 46.773 8.3789 29.359 13.523 47.125 15.727 54.312 7.1992 23.523 33.617 48.707 56.605 63.227 25.922 16.371 30.535 45.891 31.312 57.824 1.3125 20.105 5.6445 47.363 27.668 79.961 10.793 15.969 19.844 23.957 27.121 30.371 7.1602 6.3125 12.332 10.875 16.23 20.625 1.75 4.375 1.6875 8.0703-0.19141 11.309-2.1367 3.6797-6.0625 5.875-10.5 5.875-3.6016 0-6.9492-1.418-9.4219-3.9961l-33.121-34.465c-7.2617-7.5547-19.434-9.668-28.84-4.9766l-16.121 8.0625c-10.297 5.1484-21.871 7.6992-33.414 7.3984l-56.773-1.5859-0.68359-0.007812c-11.434 0-21.191 7.7891-23.734 18.941l-0.87109 3.8867c-1.6562 7.2617 0.0625 14.766 4.707 20.59 4.6445 5.8203 11.578 9.1602 19.027 9.1602h211.02v5.3164h-54.426l13.762 8.3359 3.582-3.3359h42.086v-10.32h106.71c47.609 0 73.328-23.18 78.629-70.867 1.668-15.062-4.9453-36.43-19.652-63.508zm9.7031 62.402c-3.207 28.848-13.91 61.961-68.68 61.961l-322.75 0.003906c-4.3828 0-8.4688-1.9648-11.203-5.3945-2.7344-3.4297-3.7461-7.8438-2.7695-12.125l0.88281-3.8867c1.4961-6.5625 7.2344-11.148 14.363-11.148h0.015626l56.773 1.5859c13.191 0.375 26.41-2.5703 38.172-8.4492l16.121-8.0625c5.5898-2.793 12.828-1.5352 17.145 2.957l33.121 34.465c4.3164 4.4922 10.383 7.0703 16.641 7.0703 8.0469 0 15.211-4.0625 19.156-10.863 3.4297-5.9023 3.7148-12.836 0.82812-20.051-4.7852-11.961-11.328-17.73-18.902-24.414-7.207-6.3555-15.375-13.559-25.449-28.473-20.68-30.609-24.746-56.164-25.973-75.008-0.87891-13.461-6.1406-46.805-35.953-65.637-25.344-16.008-46.883-39.727-52.383-57.691-2.1523-7.0273-7.4258-25.234-15.672-54.129-3.7695-13.219-1.2031-27.07 7.0391-37.996 9.957-13.199 26.207-19.617 42.57-16.59 33.203 6.1406 78.203 14.367 104.02 18.672 4.5859 0.76562 8.5859 3.6797 10.707 7.793 3.7344 7.2539 8.3867 17.926 9.2969 27.488 0.96094 12.168 1.3203 46.062-8.4297 56.613-1.7031 1.8438-3.5273 2.7031-5.7422 2.7031-17.664 0-28.535-20.676-35.73-34.359-1.375-2.6172-2.6328-5.0039-3.793-7-15.375-26.488-35.109-35.402-54.41-24.871-24.68 13.465-12.84 42.938-7.1484 57.098 0.71484 1.7773 1.3672 3.3906 1.875 4.7891 4.9648 13.57 37.301 82.625 63.07 112.25 19.824 22.797 52.793 52.352 66.047 64.004 0.69922 0.61719 1.1094 1.4648 1.1523 2.3945 0.046875 0.96484-0.30469 1.8945-0.98438 2.6133-9.7617 10.32-12.344 21.441-7.2852 31.312 4.8359 9.4297 12.082 11.41 17.305 11.41 9.6367 0 20.055-6.3672 30.129-12.523l0.5-0.30469c10.492-6.4102 58.258-35.945 87.383-53.961 3.4297-2.125 7.3555-3.2422 11.352-3.2422 7.9648 0 15.281 4.3516 19.086 11.359 13.523 24.902 19.918 44.828 18.5 57.633z"/>
</svg>