<svg xmlns="http://www.w3.org/2000/svg" viewBox="0 0 280 280"><defs><style>.b406d0f2-a282-4807-a73b-2aa8cdc38965,.fc090599-0273-423f-a723-6e897cfa44f3{fill:none;}.b406d0f2-a282-4807-a73b-2aa8cdc38965{stroke:#f7f4f1;stroke-width:14px;}.fc090599-0273-423f-a723-6e897cfa44f3{stroke:#1c1c29;stroke-width:4px;}</style></defs><g id="ecbbe507-230f-47c5-8412-020c78460b6f" data-name="Large"><path id="beb35540-43ab-4887-a3f7-b91754a77b7b" data-name="track" class="b406d0f2-a282-4807-a73b-2aa8cdc38965" d="M182.81,199c-8.66,2.32-22.5,6-31.13,8.36s-16,4.23-20.67,5.55-5.34,2-7.48,2.33-3.75,1-5.27-.05-1.15-2.12-3.85-6.16-8-11.75-12.36-18.07-10-13.49-14-19.8a207.12,207.12,0,0,1-10.48-18c-3.37-6.46-6.79-14.49-9.72-20.79s-5-11.82-7.83-16.94a92.34,92.34,0,0,0-9.12-13.72c-3.6-4.52-8.09-8.84-12.47-13.37S27.74,77.73,24.59,74.52s-4.11-4-5.14-5.44-1.69-2.15-1.05-3,2-1.62,4.94-2.19A79.94,79.94,0,0,1,36,62.62c5.73-.2,15.05-.41,21.8.05a170.68,170.68,0,0,1,18.74,2.64c6.63,1.13,13.61,2.74,21.07,4.16s16.4,3.29,23.73,4.31,13.27,1.35,20.26,1.81,17.07.73,21.64.94,4.1-.29,5.77.36,3.91,1.54,4.26,3.51a10.34,10.34,0,0,1-2.12,8.34c-2.5,3.4-8,9.11-12.88,12a37.81,37.81,0,0,1-16.57,5.5c-6.35.52-15.34-1.54-21.52-2.37s-11.24-2.34-15.59-2.61-7.56-.36-10.53,1a17,17,0,0,0-7.34,7,15.31,15.31,0,0,0-1.49,9.47c.51,3.3,3.13,7.36,4.58,10.33s2.6,4.67,4.17,7.46,3.3,6.5,5.27,9.32,3.86,6,6.55,7.63a16.74,16.74,0,0,0,9.62,2.09c3-.33,4.92-1.45,8.21-4.08s7.37-8.76,11.51-11.73a36.15,36.15,0,0,1,13.29-6.15c5-1.19,10.11-.73,16.68-1s15.37-.3,22.71-.45l21.35-.45c6.72-.14,13.94-.3,19-.38s8.1-.5,11.26-.16,5.52.57,7.7,2.16,3.8,3.74,5.41,7.33,3,9.95,4.22,14.16,2.45,8.3,3.09,11.06,1.84,3.55.77,5.44-3.53,3.84-7.15,5.92a83.9,83.9,0,0,1-14.6,6.56c-6.2,2.14-16.76,4.66-22.62,6.27s-7,1.85-12.55,3.34L182.81,199"/><path id="af89ced6-13c5-49d7-8083-4918c29fe80d" data-name="track" class="fc090599-0273-423f-a723-6e897cfa44f3" d="M151.68,207.36c-8.64,2.31-16,4.23-20.67,5.55s-5.34,2-7.48,2.33-3.75,1-5.27-.05-1.15-2.12-3.85-6.16-8-11.75-12.36-18.07-10-13.49-14-19.8a207.12,207.12,0,0,1-10.48-18c-3.37-6.46-6.79-14.49-9.72-20.79s-5-11.82-7.83-16.94a92.34,92.34,0,0,0-9.12-13.72c-3.6-4.52-8.09-8.84-12.47-13.37S27.74,77.73,24.59,74.52s-4.11-4-5.14-5.44-1.69-2.15-1.05-3,2-1.62,4.94-2.19A79.94,79.94,0,0,1,36,62.62c5.73-.2,15.05-.41,21.8.05a170.68,170.68,0,0,1,18.74,2.64c6.63,1.13,13.61,2.74,21.07,4.16s16.4,3.29,23.73,4.31,13.27,1.35,20.26,1.81,17.07.73,21.64.94,4.1-.29,5.77.36,3.91,1.54,4.26,3.51a10.34,10.34,0,0,1-2.12,8.34c-2.5,3.4-8,9.11-12.88,12a37.81,37.81,0,0,1-16.57,5.5c-6.35.52-15.34-1.54-21.52-2.37s-11.24-2.34-15.59-2.61-7.56-.36-10.53,1a17,17,0,0,0-7.34,7,15.31,15.31,0,0,0-1.49,9.47c.51,3.3,3.13,7.36,4.58,10.33s2.6,4.67,4.17,7.46,3.3,6.5,5.27,9.32,3.86,6,6.55,7.63a16.74,16.74,0,0,0,9.62,2.09c3-.33,4.92-1.45,8.21-4.08s7.37-8.76,11.51-11.73a36.15,36.15,0,0,1,13.29-6.15c5-1.19,10.11-.73,16.68-1s15.37-.3,22.71-.45l21.35-.45c6.72-.14,13.94-.3,19-.38s8.1-.5,11.26-.16,5.52.57,7.7,2.16,3.8,3.74,5.41,7.33,3,9.95,4.22,14.16,2.45,8.3,3.09,11.06,1.84,3.55.77,5.44-3.53,3.84-7.15,5.92a83.9,83.9,0,0,1-14.6,6.56c-6.2,2.14-16.76,4.66-22.62,6.27s-7,1.85-12.55,3.34L186.52,198l-3.71,1Z"/></g></svg>