<?xml version="1.0" encoding="UTF-8"?>
<!-- Uploaded to: SVG Find, www.svgfind.com, Generator: SVG Find Mixer Tools -->
<svg fill="#000000" width="800px" height="800px" version="1.1" viewBox="144 144 512 512" xmlns="http://www.w3.org/2000/svg">
 <path d="m587.67 221.91-30.629-33.207c-3.2539-3.5234-9.2383-3.793-12.797-0.56641l-87.164 79.059c-0.99219 0.89453-1.9531 1.8125-2.8906 2.7539l-48.914 49.297c-3.1758 3.2031-3.2656 8.3086-0.21484 11.629l13.789 14.945-16.176 14.93c-0.94141 0.79297-23.145 19.613-30.699 34.957-1.7461 3.543-1.0156 7.7891 1.8125 10.559 1.0352 1.0156 2.0234 1.9062 2.9648 2.6641l-41.703 67.93-22.512-27.367c-2.4453-2.9414-6.7188-3.9609-10.207-2.4492l-1.5977 0.72266c-1.9648 0.91406-2.418 1.1602-3.6133 0.85547-2.2852-0.54688-4.7812-0.13281-6.4141 0.25391-0.60156 0.14453-1.168 0.27734-1.5039 0.27734-0.55469 0-1.5859-1.0742-1.8906-1.4062l-5.082-5.5117c-3.0781-3.3281-8.7148-3.6172-12.09-0.61719-15.535 13.738-52.367 47.238-58.871 61.574-0.74219 1.6328-1.1758 3.4258-1.2773 5.3398-0.14453 2.582-0.58203 11.438-0.28516 17.094 0.09375 1.6758 0.125 3.8398 0.16797 6.2344 0.12109 7.1875 0.27734 16.133 1.8828 21.691 1.9961 6.8945 4.3047 12.898 7.7305 20.066 2.125 4.4727 5.7109 13.027 8.3398 19.41 0.59766 1.457 0.87891 2.9883 0.83594 4.5547l-0.058593 2.1953c-0.12109 4.3828 3.2109 8.0938 7.5898 8.4414l74.082 5.8633 0.78906 0.035157c5.1367 0 9.5078-4.0117 9.9375-9.125 0.74609-8.7383 2.3047-24.723 4.3203-33.586 0.26562-1.1758 0.67188-2.3125 1.2148-3.3828l19.355-38.633c4.0234-8.0391 7.832-15.637 5.6758-25.762l-0.14453-0.69922c-1.1445-5.3711-0.17969-10.895 2.7188-15.559l40.711-65.57c0.44531-0.71875 0.98047-1.375 1.6367-1.9922l140.18-134.86 6.8789 7.1953 30.223-28.887 4.8633-0.0625 4.1602-15.438-8.2344 7.8711-30.848 29.484-3.4531-3.6133 46.902-45.121c4.0938-3.8438 4.3281-10.34 0.51172-14.473zm-7.3711 7.2695-190.66 183.43c-1.2422 1.1641-2.332 2.4922-3.2344 3.9492l-40.707 65.57c-4.2578 6.8555-5.6758 14.977-3.9961 22.879l0.14453 0.69922c1.4258 6.7148-1.1992 11.965-4.8438 19.234l-19.348 38.617c-0.89844 1.7812-1.582 3.6836-2.0312 5.6484-2.1445 9.4414-3.7578 25.941-4.5312 34.949 0 0-0.007812 0.019531-0.027344 0.019531v4.9727l-0.003906-4.9727-72.473-5.7383 0.019531-0.59375c0.074219-2.957-0.45703-5.8438-1.582-8.5938-2.6797-6.5039-6.3359-15.238-8.5625-19.91-3.1758-6.6562-5.3125-12.203-7.1484-18.551-1.2422-4.2891-1.3867-12.852-1.4961-19.102-0.042968-2.5312-0.085937-4.8203-0.17969-6.5938-0.27734-5.1562 0.14453-13.562 0.27734-16.016 0.039062-0.66797 0.17578-1.2617 0.40625-1.7695 4.6133-10.168 32.527-37.066 55.453-57.406l4.2227 4.582c2.8594 3.1016 5.8711 4.6055 9.1992 4.6055 1.4961 0 2.7734-0.30469 3.8008-0.54688 0.62109-0.14844 1.2461-0.27734 1.7734-0.26172 4.1367 1 7.3906-0.22656 10.141-1.5l0.54297-0.24609 22.406 27.238c1.793 2.1602 4.4336 3.4023 7.2383 3.4023 3.2812 0 6.2734-1.6641 8.0195-4.4688l43.293-70.52c2.1445-3.4453 1.1211-8.0078-2.2773-10.168-0.80078-0.51172-1.8438-1.3711-2.9805-2.457 6.9297-13.414 27.711-31.039 28.086-31.359l17.074-15.746c1.7578-1.625 2.7773-3.8359 2.875-6.2227 0.09375-2.3945-0.74609-4.6797-2.3711-6.4336l-13.461-14.594 47.887-48.254c0.8125-0.81641 1.6445-1.6133 2.5039-2.3906l86.547-78.5 30.059 32.59z"/>
</svg>