<?xml version="1.0" encoding="UTF-8"?>
<!-- Uploaded to: SVG Find, www.svgfind.com, Generator: SVG Find Mixer Tools -->
<svg fill="#000000" width="800px" height="800px" version="1.1" viewBox="144 144 512 512" xmlns="http://www.w3.org/2000/svg">
 <path d="m589.44 396.65-22.617-25.023c-11.691-12.938-28.398-20.355-45.836-20.355-5.7031 0-11.383 0.79297-16.883 2.3516l-130.62 37.105c-3.2734 0.92969-6.6562 1.4023-10.051 1.4023-11.59 0-22.637-5.5586-29.551-14.871l-2.2148-2.9844c-8.5625-11.535-9.1562-26.848-1.5195-39.012l24.551-39.109c1.332-2.1172 3.3086-2.4336 4.3672-2.4336 1.8008 0 4.043 0.91797 4.9375 3.4922l7.1484 20.574c3.5586 10.238 13.234 17.121 24.074 17.121 3.2539 0 6.4453-0.62109 9.4922-1.8438 11.25-4.5195 17.785-16.449 15.535-28.371-1.9023-10.074-4.4453-24.508-5.75-36.07-1.1016-9.7383 4.2461-25.762 14.664-43.961 1.7109-2.9922 5.5586-4.3867 8.8281-3.1484 3.0664 1.1562 4.9805 4.2344 4.6484 7.4844-1.4375 14.121-2.2734 40.84 8.2656 61.09 8.8555 17.016 22.387 25.641 40.227 25.641 6.7578 0 14.078-1.2344 22.383-3.7695 13.16-4.0234 47.219-16.691 66.348-23.887 4.9609-1.8672 8.8867-5.5586 11.055-10.391 2.1758-4.8516 2.3164-10.254 0.40234-15.223-6.5-16.859-19.496-39.375-44.496-50.902-20.617-9.5078-47.934-17.758-67.219-23.004-21.406-5.8281-44.746-2.0078-63.23 10.324-20.492 13.676-40.789 28.457-60.324 43.941-24.754 19.617-44.926 45.211-58.328 74.004l-36.047 77.445-9.1992-4.3047-18.406 39.34-4.6836 1.8906 1.7773 16.512 5.0156-10.723 18.785-40.152 4.5312 2.1211-52.254 112.27c-3.7383 8.0352-4.8516 16.883-3.2109 25.594 2.0312 10.781 12.336 18.312 23.512 16.422l8.625-1.4414c9.0078-1.5078 17.758 3.3242 21.414 11.43 3.3555 7.4414 7.6484 14.703 12.758 21.59 8.1211 10.945 25.816 29.305 53.078 29.305 16.391 0 33.715-6.6875 51.492-19.879l210.43-156.18c6.3438-4.7148 10.434-11.926 11.211-19.793 0.78125-7.8672-1.8164-15.746-7.1172-21.609zm-10.254 33.105-210.43 156.18c-15.957 11.844-31.211 17.848-45.332 17.848-22.738 0-37.82-15.746-44.785-25.133-4.6719-6.293-8.5859-12.914-11.637-19.68-4.875-10.805-15.684-17.789-27.539-17.789-1.6641 0-3.3438 0.14062-4.9961 0.41797l-8.6289 1.4414c-5.5273 0.93359-10.652-2.793-11.652-8.1406-1.2344-6.5781-0.39844-13.262 2.4258-19.332l90.484-194.39c12.727-27.34 31.879-51.641 55.379-70.266 19.316-15.309 39.383-29.926 59.645-43.445 16.016-10.691 36.242-13.996 54.781-8.9531 18.906 5.1406 45.637 13.207 65.605 22.418 21.855 10.074 33.371 30.164 39.184 45.238 0.91406 2.3789 0.85156 4.9648-0.1875 7.2812-1.0352 2.3008-2.9023 4.0586-5.2656 4.9492-19.016 7.1484-52.844 19.734-65.734 23.676-7.3086 2.2383-13.645 3.3203-19.363 3.3203-13.871 0-24.031-6.5664-31.062-20.078-9.3008-17.871-8.4727-42.305-7.1562-55.277 0.80859-7.9023-3.832-15.383-11.273-18.195-7.8984-2.9844-17.27 0.39844-21.441 7.6797-8.2461 14.406-17.711 34.816-15.965 50.254 1.3398 11.875 3.9297 26.586 5.8633 36.828 1.3398 7.0859-2.5469 14.18-9.2344 16.871-1.8164 0.73047-3.7109 1.0977-5.6406 1.0977-6.4453 0-12.199-4.0898-14.316-10.18l-7.1484-20.574c-2.2031-6.3398-7.9688-10.43-14.695-10.43-5.3555 0-10.258 2.7188-13.117 7.2695l-24.551 39.109c-9.9219 15.797-9.1484 35.68 1.9727 50.66l2.2148 2.9844c8.8516 11.926 23 19.039 37.848 19.039 4.3477 0 8.6797-0.60547 12.875-1.7969l130.62-37.105c4.5781-1.3008 9.3086-1.9609 14.059-1.9609 14.523 0 28.434 6.1797 38.176 16.949l22.617 25.023c3.3984 3.7617 5 8.6172 4.5 13.664-0.5 5.0625-3.0195 9.5039-7.0938 12.527z"/>
</svg>