<?xml version="1.0" encoding="UTF-8"?>
<!-- Uploaded to: SVG Find, www.svgfind.com, Generator: SVG Find Mixer Tools -->
<svg fill="#000000" width="800px" height="800px" version="1.1" viewBox="144 144 512 512" xmlns="http://www.w3.org/2000/svg">
 <path d="m600.38 233.29-18.207-15.477c-4.0078-3.4062-10.066-4.0195-14.695-1.4727l-7.2617 4.0156c-1.6992 0.94141-3.9336 0.5-5.1562-1.0039l-18.617-22.949c-3.8789-4.7812-9.6328-7.5234-15.793-7.5234-3.5625 0-7.082 0.94531-10.172 2.7344l-41.305 23.906c-10.863 6.2852-16.484 18.777-13.988 31.082l0.96094 4.7344c2.3984 11.816 13.164 20.25 25.422 19.465 4.6172-0.29688 9.1406-1.7305 13.078-4.1445l8.3906-5.1406c2.6953-1.6484 6.0977-1.9688 9.0547-0.83984 8.1328 3.0977 23.43 9.0312 34.559 13.934 0.53906 0.23828 0.80078 0.65625 0.77734 1.25-0.027344 0.60547-0.32813 1.0117-0.89844 1.207l-188.04 64.516c-15.898 5.457-24.883 21.883-20.898 38.211l18.18 74.48c1.375 5.6328 4.3789 10.66 8.6914 14.535l9.7656 8.793c2.5234 2.2695 4.0078 5.3906 4.1875 8.7773 0.17969 3.3906-0.97656 6.6445-3.2461 9.1641l-18.332 20.348c-16.426 18.227-38.484 30.934-62.113 35.781-11.344 2.3281-21.773 3.2812-31.77 2.7422-2.4492-0.13281-4.4922-1.5664-5.4727-3.8477-1.0039-2.332-0.625-4.8711 1.0078-6.7969l48.441-56.98c15.535-18.277 8.375-44.457-3.3828-54.453-4.6758-3.9766-10.723-6.0781-17.492-6.0781-9.1992 0-18.461 3.9023-23.59 9.9336l-56.93 66.98c-22.25 26.172-28.633 75.195-3.1953 96.82 8.6797 7.3789 18.668 11.117 29.695 11.117 13.129 0 27.965-5.168 46.68-16.273 6.4531-3.832 14.906-3.3594 20.832 1.1641l10.922 8.3398c3.6367 2.7734 7.9727 4.2422 12.539 4.2422 6.082 0 11.824-2.6562 15.758-7.2852l171.41-201.64 4.2344 3.5-28.883 34.957-7.7109 9.3359 16.039-5.5938-0.30469-5.1602 28.297-34.25-8.25-6.8164 91.246-107.34c13.938-16.395 11.938-41.07-4.4609-55.004zm-3.5898 48.16-266.08 313c-3.3594 3.9609-9.6758 4.6602-13.828 1.4844l-10.922-8.3398c-9.2109-7.0312-22.617-7.793-32.637-1.8477-17.02 10.094-30.137 14.793-41.289 14.793-8.5664 0-16.039-2.8125-22.852-8.6016-21.973-18.68-12.625-61.902 4.3984-81.934l56.934-66.969c3.1094-3.6562 9.5-6.2109 15.539-6.2109 2.9453 0 7.1836 0.61719 10.645 3.5586 8.2773 7.0391 13.363 26.402 2.1797 39.562l-48.441 56.98c-4.2305 4.9805-5.2539 11.805-2.6641 17.82 2.5625 5.9609 8.1641 9.8711 14.617 10.219 10.867 0.58594 22.223-0.4375 34.453-2.9414 25.82-5.293 49.914-19.164 67.84-39.055l18.332-20.348c4.1602-4.6211 6.2734-10.586 5.9492-16.793-0.32812-6.207-3.0508-11.918-7.6719-16.078l-9.7656-8.793c-2.7227-2.4531-4.625-5.6328-5.4922-9.1914l-18.18-74.48c-2.6836-10.984 3.3633-22.039 14.062-25.711l188.04-64.512c4.668-1.6016 7.8164-5.8203 8.0234-10.754 0.21094-4.918-2.5664-9.3828-7.0703-11.367-10.777-4.75-25.012-10.312-35.059-14.141-5.9805-2.2773-12.887-1.6367-18.336 1.7031l-8.3906 5.1406c-2.4805 1.5195-5.3281 2.4219-8.2344 2.6094-6.9258 0.52734-13.035-4.3281-14.395-11.02l-0.96094-4.7344c-1.5938-7.8555 1.9922-15.824 8.9258-19.836l41.305-23.906c4.0508-2.3555 9.5312-1.3203 12.469 2.2969l18.617 22.949c4.3477 5.3633 12.41 6.9453 18.465 3.5977l7.2617-4.0156c0.86328-0.47656 2-0.35547 2.75 0.27344l18.203 15.477c11.961 10.16 13.422 28.152 3.2578 40.109z"/>
</svg>