<svg xmlns="http://www.w3.org/2000/svg" viewBox="0 0 280 280"><defs><style>.ab69d369-0cd7-4d51-99c7-22afe1ffa76f,.fd7565e6-9bcb-4bdd-9d56-241004752044{fill:none;}.ab69d369-0cd7-4d51-99c7-22afe1ffa76f{stroke:#f7f4f1;stroke-width:14px;}.fd7565e6-9bcb-4bdd-9d56-241004752044{stroke:#1c1c29;stroke-width:4px;}</style></defs><g id="be0cda3b-937e-4460-8d14-576ee3603c37" data-name="Large"><path id="e1ac5c7b-312b-4aef-9719-adc72884d125" data-name="track" class="ab69d369-0cd7-4d51-99c7-22afe1ffa76f" d="M74,142.16c5.17-2.72,6.25-3.19,13.28-7S108,124,116.18,119.37s8.8-5.58,20.25-11.85,37.18-19.82,48.45-25.77S199.77,74,204,71.83a47.32,47.32,0,0,1,6.31-2.92c2-.73,4.11-1.81,5.47-1.47s1.84,2.1,2.74,3.51,1.83,3.6,2.68,5,1.39,2.67,2.44,3.16,2.55-.21,3.88-.28,3.06-.77,4.16-.13,1.35,1.47,2.48,3.94a110.89,110.89,0,0,1,4.32,10.87,60.85,60.85,0,0,1,2.07,9.45c.48,3.14.46,4.93.84,9.34s.94,11.15,1.43,17.13,1,12.09,1.55,18.75,1.33,15.21,1.71,21.21.27,11.18.55,14.73-.35,5.46,1.12,6.52,5.75-.25,7.67-.09,3.36.1,3.9,1.05-.16,2.77-.61,4.65-1.49,4.69-2.14,6.66-1.14,3.72-1.73,5.22-.84,3.11-1.83,3.82a5,5,0,0,1-4.16.44c-1.11-.54-1.4-1.68-2.58-3.68s-1.91-3.49-4.51-8.28-8.52-15.67-11.12-20.43-3-6-4.43-8.17-2.17-4.24-4-5.06-4.28.12-6.92.11-6.28.39-8.9-.21-4.63-2.48-6.84-3.42-4.31-2.1-6.46-2.25-2.69-.33-6.44,1.28-12.32,6.6-16,8.34-4,2.5-6.27,2.08-5.48-3.31-7.58-4.58-2.26-2.65-5-3-6.57.29-11.4.92-12.09,1.16-17.6,2.89-8.75,4-15.54,7.49S88,186.48,82,189.58,74.21,193.8,71.57,195s-3.58,2.33-5.34,1.85-2.43-1.63-5.25-4.68-9-11.24-11.67-13.64-3.6-1.46-4.51-.77-.56,3.5-.92,4.87.1,2.43-1.25,3.38-4.52,1.35-6.82,2.35-5.1,2.84-7,3.65-3.06,1.94-4.28,1.24-2.44-3.17-3.1-5.38a17.32,17.32,0,0,1-.8-7.83c.47-3,1.7-7.4,3.7-10.09s5.6-4.34,8.33-6.05,4.19-2.2,8.13-4.26l15.42-8.14L74,142.16"/><path id="fb30cb0f-f1e1-4bca-b6ef-1ac5385698e0" data-name="track" class="fd7565e6-9bcb-4bdd-9d56-241004752044" d="M74,142.16c5.17-2.72,6.25-3.19,13.28-7S108,124,116.18,119.37s8.8-5.58,20.25-11.85,37.18-19.82,48.45-25.77S199.77,74,204,71.83a47.32,47.32,0,0,1,6.31-2.92c2-.73,4.11-1.81,5.47-1.47s1.84,2.1,2.74,3.51,1.83,3.6,2.68,5,1.39,2.67,2.44,3.16,2.55-.21,3.88-.28,3.06-.77,4.16-.13,1.35,1.47,2.48,3.94a110.89,110.89,0,0,1,4.32,10.87,60.85,60.85,0,0,1,2.07,9.45c.48,3.14.46,4.93.84,9.34s.94,11.15,1.43,17.13,1,12.09,1.55,18.75,1.33,15.21,1.71,21.21.27,11.18.55,14.73-.35,5.46,1.12,6.52,5.75-.25,7.67-.09,3.36.1,3.9,1.05-.16,2.77-.61,4.65-1.49,4.69-2.14,6.66-1.14,3.72-1.73,5.22-.84,3.11-1.83,3.82a5,5,0,0,1-4.16.44c-1.11-.54-1.4-1.68-2.58-3.68s-1.91-3.49-4.51-8.28-8.52-15.67-11.12-20.43-3-6-4.43-8.17-2.17-4.24-4-5.06-4.28.12-6.92.11-6.28.39-8.9-.21-4.63-2.48-6.84-3.42-4.31-2.1-6.46-2.25-2.69-.33-6.44,1.28-12.32,6.6-16,8.34-4,2.5-6.27,2.08-5.48-3.31-7.58-4.58-2.26-2.65-5-3-6.57.29-11.4.92-12.09,1.16-17.6,2.89-8.75,4-15.54,7.49S88,186.48,82,189.58,74.21,193.8,71.57,195s-3.58,2.33-5.34,1.85-2.43-1.63-5.25-4.68-9-11.24-11.67-13.64-3.6-1.46-4.51-.77-.56,3.5-.92,4.87.1,2.43-1.25,3.38-4.52,1.35-6.82,2.35-5.1,2.84-7,3.65-3.06,1.94-4.28,1.24-2.44-3.17-3.1-5.38a17.32,17.32,0,0,1-.8-7.83c.47-3,1.7-7.4,3.7-10.09s5.6-4.34,8.33-6.05,4.19-2.2,8.13-4.26l15.42-8.14L74,142.16"/></g></svg>