<?xml version="1.0" encoding="UTF-8"?>
<!-- Uploaded to: SVG Find, www.svgfind.com, Generator: SVG Find Mixer Tools -->
<svg fill="#000000" width="800px" height="800px" version="1.1" viewBox="144 144 512 512" xmlns="http://www.w3.org/2000/svg">
 <path d="m576.06 561.71-166.07-96.93c-1.8086-1.0547-3.1641-2.7344-3.8203-4.7266l-3.7344-11.352c-3.3711-10.242-12.504-17.289-23.27-17.941l-1.6289-0.097656c-0.21875-0.015625-0.40625-0.16406-0.46484-0.37891l-33.84-120.97c-2.8438-10.168-4.543-20.672-5.0508-31.223l-2.7617-57.461c-0.44531-9.1992-6.375-17.031-15.109-19.957l-41.586-13.926c-7.125-2.3867-15.359 0.26953-19.738 6.3398-3.8789 5.3789-6.332 11.164-7.2891 17.191-0.61719 3.8867-1.0078 8.4961-1.4219 13.371-0.94531 11.145-2.1211 25.008-6.668 36.586-1.8438 4.7031-0.75781 10.035 2.7617 13.582l1.2773 1.2852c0.34375 0.34375 0.44141 0.85547 0.25391 1.2969-4.7578 11.234-20.805 49.203-27.559 66.148-6.8203 17.102-25.32 75.094 22.93 103.25l28.062 16.375c5.9023 3.4453 12.629 5.418 19.457 5.7031l11.066 0.46875-0.54688 0.99609c-2.4023 4.3906-0.89844 9.8008 3.4258 12.32l124.82 72.848-2.5 4.3203-37.434-21.645-9.9961-5.7812 7.7891 14.203 4.8047-1.1016 36.676 21.207 5.0117-8.668 73.422 42.852c1.9219 1.1211 3.9531 2.0898 6.0508 2.8789 4.8828 1.8438 17.402 6.4844 28.211 9.7656 3.4023 1.0312 6.9336 1.5586 10.488 1.5586 4.918 0 9.707-0.98437 14.227-2.9219 3.0156-1.2891 6.1797-2.8633 9.3984-4.6641 8.1719-4.5703 13.098-12.895 13.184-22.266 0.078126-9.3789-4.7109-17.812-12.82-22.543zm-5.3398 35.949c-2.9062 1.6289-5.7461 3.0391-8.4375 4.1914-5.5898 2.3945-11.918 2.75-17.754 0.97656-10.516-3.1914-22.785-7.7383-27.57-9.5469-1.5625-0.58984-3.082-1.3125-4.5156-2.1484l-201.75-117.75 0.6875-1.2539c1.5703-2.8633 1.5469-6.2734-0.058594-9.1211-1.6055-2.8438-4.5117-4.625-7.7773-4.7617l-12.336-0.51953c-5.1758-0.21875-10.277-1.7148-14.754-4.3281l-28.062-16.375c-41.227-24.062-24.668-75.512-18.609-90.707 6.7188-16.848 22.73-54.734 27.48-65.945 1.8047-4.2617 0.86328-9.1406-2.4023-12.43l-1.2773-1.2852c-0.68359-0.69141-0.88281-1.75-0.51172-2.7031 5.0859-12.953 6.332-27.641 7.332-39.438 0.39844-4.6914 0.77344-9.1172 1.332-12.641 0.70703-4.4414 2.5508-8.7578 5.4922-12.836 1.832-2.5391 5.2656-3.6484 8.2617-2.6484l41.586 13.926c4.7266 1.582 7.9336 5.8242 8.1758 10.801l2.7617 57.457c0.54297 11.312 2.3672 22.574 5.418 33.477l33.84 120.97c1.2227 4.3828 5.0977 7.5117 9.6367 7.7852l1.6289 0.097656c6.582 0.39844 12.168 4.7031 14.23 10.969l3.7305 11.348c1.4297 4.3516 4.3984 8.0234 8.3555 10.332l166.07 96.926c4.918 2.8711 7.8203 7.9844 7.7695 13.684-0.042968 5.6875-3.0234 10.727-7.9727 13.496z"/>
</svg>