<svg xmlns="http://www.w3.org/2000/svg" viewBox="0 0 280 280"><defs><style>.b079c3e4-7ba1-4103-82f5-80c613d592f2,.bda9528b-f010-421c-a85b-faeb25d1e2be{fill:none;}.b079c3e4-7ba1-4103-82f5-80c613d592f2{stroke:#f7f4f1;stroke-width:14px;}.bda9528b-f010-421c-a85b-faeb25d1e2be{stroke:#1c1c29;stroke-width:4px;}</style></defs><g id="b1e2279a-e2f5-498c-9cc5-aae9a76d7ea1" data-name="Large"><path id="b086dfbf-f998-4a66-9f15-063c39e6fea5" data-name="track" class="b079c3e4-7ba1-4103-82f5-80c613d592f2" d="M137.51,229.16c-4.28-.06-6.41-.07-11.37-.15s-12.69-.22-18.39-.32l-15.86-.24c-6.65-.12-17.73-.37-24.06-.46s-10.54-.05-13.92-.1-4.22,0-6.37-.16-4.45,0-6.47-.86a13.67,13.67,0,0,1-5.65-4.35,11.85,11.85,0,0,1-2.18-7,15.24,15.24,0,0,1,3.09-8c1.77-2.18,3.43-2.79,7.57-5.13s12.86-6.34,17.28-8.89,7.31-4.05,9.25-6.42a11,11,0,0,0,2.4-7.82,15,15,0,0,0-3.63-7.68c-1.77-2.09-3.88-3-7.06-4.88s-8.44-4.24-12-6.31-6.8-3.31-9.3-6.16-4.11-7.17-5.7-10.94-1.72-5.32-3.8-11.74-6.63-20.41-8.69-26.75S20,96.59,19,93.56s-2-4.37-2.14-6.92-.4-6,1.12-8.41,5.17-4.82,8-6.33,6.57-2.07,9.1-2.78,3.87-1.51,6.1-1.46,5.1.09,7.22,1.73,2.94,1.62,5.5,8.13,7.63,24.38,9.83,30.89,2,6.49,3.4,8.16A4.93,4.93,0,0,0,72,118.48a6.37,6.37,0,0,0,4.85-3.62c1.17-2.46,1.07-4.06,2.12-11.1s3-23.2,4.22-31.12,1.27-12.57,3.07-16.41,5.18-5.56,7.7-6.58,5.36-.27,7.41.48a10.36,10.36,0,0,1,4.86,4c1.26,1.8,1.47,3.26,2.7,6.8s3,10.66,4.68,14.45a34.63,34.63,0,0,0,5.24,8.31,91.94,91.94,0,0,0,6.68,7.14c2.1,2.19,4.68,4,5.94,6a8.91,8.91,0,0,1,1.67,5.84c-.07,2.52-.75,4.43-2.07,9.19s-5,15-5.88,19.4-.33,5.35.32,7.2,1,3.25,3.59,3.95a22.22,22.22,0,0,0,11.7.22,77.34,77.34,0,0,0,17.93-8.13A67.79,67.79,0,0,0,172.09,123a51.24,51.24,0,0,0,8.32-12.08c2.79-5.16,6.21-13.95,8.37-18.93s3-7.24,4.57-10.93,3-8.09,4.85-11.16,3.69-5.57,6.3-7.28,6.46-2.48,9.32-3,4.88-.26,7.82-.21,6.74.18,9.82.54,6.14,0,8.68,1.69,4.11,4.5,6.6,8.54S253.17,82.2,255,85.81s2.21,4,2.8,6,1.21,3.49.7,5.71a20.18,20.18,0,0,1-3.76,7.56c-2.29,3.15-5.86,6.73-9.94,11.35s-10.89,12.1-14.52,16.35-5.87,6.58-7.28,9.13-2,3.08-1.17,6.18,3.81,8.57,5.94,12.36,4.34,6.59,6.83,10.4,4.43,6.84,8.09,12.47,10.57,16.16,13.87,21.34,4.93,6.52,5.9,9.73,1.14,6.84-.12,9.49-3,5.25-7.49,6.38-15,.34-19.73.37.47,0-9-.16-35.26-.47-47.65-.64-19.84-.31-26.68-.42l-14.34-.22"/><path id="b0bc50de-0643-4f23-a1ea-b5a478b2e36c" data-name="track" class="bda9528b-f010-421c-a85b-faeb25d1e2be" d="M137.51,229.16c-4.28-.06-6.41-.07-11.37-.15s-12.69-.22-18.39-.32l-15.86-.24c-6.65-.12-17.73-.37-24.06-.46s-10.54-.05-13.92-.1-4.22,0-6.37-.16-4.45,0-6.47-.86a13.67,13.67,0,0,1-5.65-4.35,11.85,11.85,0,0,1-2.18-7,15.24,15.24,0,0,1,3.09-8c1.77-2.18,3.43-2.79,7.57-5.13s12.86-6.34,17.28-8.89,7.31-4.05,9.25-6.42a11,11,0,0,0,2.4-7.82,15,15,0,0,0-3.63-7.68c-1.77-2.09-3.88-3-7.06-4.88s-8.44-4.24-12-6.31-6.8-3.31-9.3-6.16-4.11-7.17-5.7-10.94-1.72-5.32-3.8-11.74-6.63-20.41-8.69-26.75S20,96.59,19,93.56s-2-4.37-2.14-6.92-.4-6,1.12-8.41,5.17-4.82,8-6.33,6.57-2.07,9.1-2.78,3.87-1.51,6.1-1.46,5.1.09,7.22,1.73,2.94,1.62,5.5,8.13,7.63,24.38,9.83,30.89,2,6.49,3.4,8.16A4.93,4.93,0,0,0,72,118.48a6.37,6.37,0,0,0,4.85-3.62c1.17-2.46,1.07-4.06,2.12-11.1s3-23.2,4.22-31.12,1.27-12.57,3.07-16.41,5.18-5.56,7.7-6.58,5.36-.27,7.41.48a10.36,10.36,0,0,1,4.86,4c1.26,1.8,1.47,3.26,2.7,6.8s3,10.66,4.68,14.45a34.63,34.63,0,0,0,5.24,8.31,91.94,91.94,0,0,0,6.68,7.14c2.1,2.19,4.68,4,5.94,6a8.91,8.91,0,0,1,1.67,5.84c-.07,2.52-.75,4.43-2.07,9.19s-5,15-5.88,19.4-.33,5.35.32,7.2,1,3.25,3.59,3.95a22.22,22.22,0,0,0,11.7.22,77.34,77.34,0,0,0,17.93-8.13A67.79,67.79,0,0,0,172.09,123a51.24,51.24,0,0,0,8.32-12.08c2.79-5.16,6.21-13.95,8.37-18.93s3-7.24,4.57-10.93,3-8.09,4.85-11.16,3.69-5.57,6.3-7.28,6.46-2.48,9.32-3,4.88-.26,7.82-.21,6.74.18,9.82.54,6.14,0,8.68,1.69,4.11,4.5,6.6,8.54S253.17,82.2,255,85.81s2.21,4,2.8,6,1.21,3.49.7,5.71a20.18,20.18,0,0,1-3.76,7.56c-2.29,3.15-5.86,6.73-9.94,11.35s-10.89,12.1-14.52,16.35-5.87,6.58-7.28,9.13-2,3.08-1.17,6.18,3.81,8.57,5.94,12.36,4.34,6.59,6.83,10.4,4.43,6.84,8.09,12.47,10.57,16.16,13.87,21.34,4.93,6.52,5.9,9.73,1.14,6.84-.12,9.49-3,5.25-7.49,6.38-15,.34-19.73.37.47,0-9-.16-35.26-.47-47.65-.64-19.84-.31-26.68-.42l-14.34-.22"/></g></svg>