<svg xmlns="http://www.w3.org/2000/svg" viewBox="0 0 280 280"><defs><style>.aa4b445a-a254-4af0-848c-0ee3c2c099a2,.eb271e75-9e59-4547-ab4f-80e0d9cbc2a5{fill:none;}.eb271e75-9e59-4547-ab4f-80e0d9cbc2a5{stroke:#f7f4f1;stroke-width:14px;}.aa4b445a-a254-4af0-848c-0ee3c2c099a2{stroke:#1c1c29;stroke-width:4px;}</style></defs><g id="b8bba64b-195f-4c78-9818-cc5545c385bd" data-name="Large"><path id="bd1167cf-0a0d-4b17-9a4e-becde6410ab8" data-name="track" class="eb271e75-9e59-4547-ab4f-80e0d9cbc2a5" d="M141.59,120.17c5.55,3.35,10,5.42,15.07,8.89S171.26,137,172.13,141s-8.47,7.49-10.32,11.9,2.68,10.28-.79,14.6-14.31,9.78-20,11.4-9.92-.51-14.26-1.72-5-1.75-11.74-5.52-21.79-13.91-28.49-17-8-2.52-11.69-1.82-7.17,4.83-10.45,6.05-6.13,2.05-9.25,1.24-7-4.43-9.51-6.13-3.55-3.34-5.75-4.09a12.1,12.1,0,0,0-7.42-.42c-3.09.76-8.5,2-11.16,5s-4.55,9.43-4.81,12.43,1.76,4.55,3.23,5.56,3.23.52,5.61.51,5.7-.77,8.64-.54,5.45,1.12,9,1.88,8.22,2.13,12.42,2.64a86.2,86.2,0,0,0,12.81.39c6.13-.06,16.81-.73,24-.82s12-1.2,19,.28,15.67,6.64,22.74,8.64a84.68,84.68,0,0,0,19.74,3.34,52.47,52.47,0,0,0,17.17-1.92c7-1.76,17.26-5.87,24.69-8.66s10.94-3.3,19.89-8.09,29.43-16.06,33.79-20.62-5.94-4.19-7.67-6.72-3.23-6.15-2.63-8.44,3.32-4.32,6.17-5.29,7.92,1.32,11-.52,6.77-8,7.43-10.49-3.32-2-3.44-4.5,2.43-7.91,2.72-10.23.36-2.84-.94-3.65-3.1-.92-6.87-1.22-6.95-.3-15.73-.56-23.77-.67-36.94-1-24.35-.56-42.11-1.18-46.64-1.91-64.43-2.49-34.19-.72-42.28-1-4.9-1.08-6.28-.71-3,1.17-2,2.94,5.18,5.57,7.93,7.68,3.71,5.26,8.55,5,14.37-5,20.46-6.65,9.16-4.44,16-3,18,7.82,25.25,11.64,12.67,7.85,18.2,11.2"/><path id="bf18fed5-3b1f-4fc2-b847-fdec53a65312" data-name="track" class="aa4b445a-a254-4af0-848c-0ee3c2c099a2" d="M141.59,120.17c5.55,3.35,10,5.42,15.07,8.89S171.26,137,172.13,141s-8.47,7.49-10.32,11.9,2.68,10.28-.79,14.6-14.31,9.78-20,11.4-9.92-.51-14.26-1.72-5-1.75-11.74-5.52-21.79-13.91-28.49-17-8-2.52-11.69-1.82-7.17,4.83-10.45,6.05-6.13,2.05-9.25,1.24-7-4.43-9.51-6.13-3.55-3.34-5.75-4.09a12.1,12.1,0,0,0-7.42-.42c-3.09.76-8.5,2-11.16,5s-4.55,9.43-4.81,12.43,1.76,4.55,3.23,5.56,3.23.52,5.61.51,5.7-.77,8.64-.54,5.45,1.12,9,1.88,8.22,2.13,12.42,2.64a86.2,86.2,0,0,0,12.81.39c6.13-.06,16.81-.73,24-.82s12-1.2,19,.28,15.67,6.64,22.74,8.64a84.68,84.68,0,0,0,19.74,3.34,52.47,52.47,0,0,0,17.17-1.92c7-1.76,17.26-5.87,24.69-8.66s10.94-3.3,19.89-8.09,29.43-16.06,33.79-20.62-5.94-4.19-7.67-6.72-3.23-6.15-2.63-8.44,3.32-4.32,6.17-5.29,7.92,1.32,11-.52,6.77-8,7.43-10.49-3.32-2-3.44-4.5,2.43-7.91,2.72-10.23.36-2.84-.94-3.65-3.1-.92-6.87-1.22-6.95-.3-15.73-.56-23.77-.67-36.94-1-24.35-.56-42.11-1.18-46.64-1.91-64.43-2.49-34.19-.72-42.28-1-4.9-1.08-6.28-.71-3,1.17-2,2.94,5.18,5.57,7.93,7.68,3.71,5.26,8.55,5,14.37-5,20.46-6.65,9.16-4.44,16-3,18,7.82,25.25,11.64,12.67,7.85,18.2,11.2"/></g></svg>