<?xml version="1.0" encoding="UTF-8"?>
<!-- Uploaded to: SVG Find, www.svgfind.com, Generator: SVG Find Mixer Tools -->
<svg fill="#000000" width="800px" height="800px" version="1.1" viewBox="144 144 512 512" xmlns="http://www.w3.org/2000/svg">
 <path d="m609.71 194.28c-1.6914-5.9766-8.2617-9.6875-14.289-7.9805l-346.93 98.332c-6.5703 1.8594-12.801 4.6992-18.523 8.4414-2.6289 1.7227-4.3359 4.4961-4.6875 7.6172-0.35156 3.125 0.70312 6.2109 2.8867 8.4688l6.0742 6.2852c0.94141 0.97266 1.0234 2.5039 0.19141 3.5586-5.0391 6.3789-14.84 19.535-23.812 35.949-7.7188 14.117-12.289 29.523-13.594 45.789l-6.7383 84.34c-0.85938 10.734-0.42188 21.57 1.3047 32.215l13.605 83.859c0.98438 6.0664 6.1641 10.465 12.316 10.465 2.4883 0 4.9062-0.75 6.9883-2.168l5.5391-3.5938 4.0273 4.6562c1.9766 2.293 4.8516 3.6055 7.8789 3.6055 2.2773 0 4.4453-0.72656 6.2656-2.0977l30.062-22.645c2.1953-1.6523 3.5859-4.1719 3.8164-6.9062 0.23437-2.7344-0.71094-5.4492-2.5898-7.4414l-53.984-57.418c-1.1211-1.1953-1.9648-2.6445-2.4297-4.1836-1.8516-6.125-5.5781-22.68-0.17578-44.176 0.39844-1.5938 1.2227-3.1133 2.3789-4.3984l17.898-19.93c0.39062-0.43359 0.74609-0.24609 0.96484-0.019531l20.207 20.727c1.8203 1.8672 4.3594 2.9375 6.9648 2.9375h0.003907c2.0859 0 4.0781-0.65625 5.7578-1.8906l26.828-19.707c2.1992-1.6172 3.6211-4.0977 3.9102-6.8125 0.28906-2.7148-0.58594-5.4414-2.3984-7.4805l-56.074-63.129c-0.67188-0.75781-0.83594-1.8398-0.42188-2.7617l21.828-48.184c1.9258-4.2461 5.8945-5.7617 8.9688-5.7617 2.793 0 5.3672 1.1523 7.25 3.2461l104.59 116.13c3.0664 3.4062 7.4531 5.3594 12.035 5.3594 4.7266 0 9.207-2.0547 12.285-5.6406l35.801-41.664c6.6328-7.7188 8.9805-18.191 6.2773-28.012-6.5781-23.891-7.0234-35.98-5.3984-39.078 4.9492-9.4609 10.852-17.801 33.016-24.086 20.582-5.832 30.516-14.047 38.496-20.645 1.3438-1.1094 2.6445-2.1836 3.9492-3.207 7.4961-5.8711 32.223-28.836 42.508-38.434 2.9414-2.7461 4.0898-6.8555 2.9922-10.734l-2.375-8.3828 0.30859-0.55078 30.273-8.5781c6.1289-1.7422 9.7109-8.1523 7.9727-14.289zm-10.773 4.4336-30.27 8.5781c-2.75 0.77734-5.0312 2.582-6.4219 5.0781-1.3945 2.4961-1.7305 5.3828-0.94922 8.1289l2.25 8.832c-7.9453 7.418-34.453 32.082-41.832 37.859-1.375 1.0742-2.7422 2.207-4.1562 3.375-7.6172 6.2969-16.254 13.438-34.766 18.688-23.488 6.6562-32.449 16.105-39.297 29.191-1.332 2.543-5.3867 10.285 4.6016 46.551 1.7969 6.5273 0.24219 13.484-4.168 18.613l-35.805 41.668c-2.2578 2.6289-6.6133 2.6875-8.9336 0.10156l-58.25-64.68 4.1641-3.7461 29.395 32.699 7.8477 8.7305-3.0703-16.184-4.9922-0.44531-28.797-32.031-7.9805 7.1719-42.922-47.656c-3.8516-4.2812-9.1328-6.6367-14.863-6.6367-7.9961 0-15.008 4.5117-18.301 11.777l-21.828 48.184c-2.082 4.6016-1.2617 10.012 2.0898 13.789l55.691 62.699-26 19.102-19.891-20.402c-4.2305-4.3438-11.875-4.1797-15.926 0.32422l-17.902 19.934c-2.2617 2.5234-3.8867 5.5469-4.6914 8.7461-5.8125 23.117-2.3047 41.023 0.30469 49.645 0.92188 3.043 2.5703 5.8906 4.7695 8.2305l53.555 56.957-29.547 22.254c-0.023438 0.019531-0.050781 0.035156-0.10156 0.035156l-4.1562-4.7188c-1.9805-2.2891-4.8516-3.6016-7.8828-3.6016-2.0977 0-4.125 0.625-5.8594 1.8047l-5.3164 3.6211c-1.2148 0.83594-3.1328 0.30469-3.4219-1.4688l-13.602-83.859c-1.5977-9.8281-2-19.84-1.207-29.758l6.7383-84.34c1.1836-14.82 5.3477-28.844 12.371-41.691 8.6133-15.754 18.023-28.383 22.863-34.508 4.0039-5.0664 3.6289-12.387-0.86719-17.035l-6.0352-6.6758c4.8555-3.1719 10.141-5.582 15.707-7.1602l347.3-98.379c0.48438 0 1.0898 0.30469 1.2773 0.96484 0.19922 0.70703-0.21094 1.4453-0.91406 1.6445z"/>
</svg>